#!OML:ASF F:\VICON\USERDATA\INSTALL\rory3\rory3.ASF
:FULLY-SPECIFIED
:DEGREES
886
root 1.25268 15.3086 -5.24593 -5.26088 -0.56416 1.58925
lowerback -9.11093 12.0315 7.61046
upperback -3.41706 15.5801 -6.13418
thorax 5.08457 7.89378 -8.09443
lowerneck 3.37395 -9.49978 -15.5976
upperneck 50.2753 -4.59321 -15.0604
head 19.7796 -6.30634 -5.55349
rclavicle -1.63003e-013 2.70347e-014
rhumerus 69.8475 -4.86743 -73.2168
rradius 147.315
rwrist -64.5692
rhand 1.70118 -38.3049
rfingers 7.12502
rthumb 27.2188 -66.3612
lclavicle -1.63003e-013 2.70347e-014
lhumerus -56.9828 -9.63564 80.4158
lradius 33.4534
lwrist 20.198
lhand -15.5861 -24.8258
lfingers 7.12502
lthumb 10.5994 4.8869
rfemur -16.3798 -35.6346 19.7344
rtibia 67.5247
rfoot -47.6569 -37.5608
rtoes 9.03111
lfemur -37.7417 -21.5389 -3.06441
ltibia 24.7671
lfoot 8.8579 -6.20865
ltoes -13.5181
887
root 1.26183 15.3107 -5.2442 -5.42333 -0.670592 1.20026
lowerback -8.71738 12.0305 8.13906
upperback -3.48932 15.5579 -6.07406
thorax 4.90693 7.88512 -8.39255
lowerneck 3.20872 -9.44214 -15.6045
upperneck 50.4899 -4.46174 -14.9838
head 19.9961 -6.25297 -5.55781
rclavicle -4.49253e-014 1.59028e-015
rhumerus 69.7351 -4.91757 -73.3338
rradius 147.327
rwrist -64.695
rhand 1.75587 -38.0695
rfingers 7.12502
rthumb 27.2711 -66.1176
lclavicle -4.49253e-014 1.59028e-015
lhumerus -57.559 -10.5358 81.5122
lradius 34.7274
lwrist 23.1702
lhand -20.3263 -22.2565
lfingers 7.12502
lthumb 6.02476 7.63788
rfemur -16.0767 -35.5844 19.9969
rtibia 67.4388
rfoot -47.7822 -37.6233
rtoes 9.46877
lfemur -37.5405 -21.4337 -2.76946
ltibia 24.8065
lfoot 8.74567 -6.37096
ltoes -13.7731
888
root 1.26844 15.3097 -5.24866 -5.43858 -0.652683 1.40414
lowerback -8.47523 12.0801 7.99562
upperback -3.64836 15.6601 -6.25458
thorax 4.64299 7.92713 -8.55153
lowerneck 3.33164 -9.50161 -15.581
upperneck 50.6485 -4.61789 -14.8635
head 20.0704 -6.30502 -5.54176
rclavicle -1.48293e-013 -1.43125e-014
rhumerus 69.4639 -5.17094 -73.3809
rradius 147.27
rwrist -64.7897
rhand 1.79433 -38.0819
rfingers 7.12502
rthumb 27.3079 -66.1242
lclavicle -1.48293e-013 -1.43125e-014
lhumerus -58.4289 -11.732 82.3502
lradius 35.9673
lwrist 24.8856
lhand -20.2082 -19.593
lfingers 7.12502
lthumb 6.13881 10.2981
rfemur -16.1301 -35.5642 19.7712
rtibia 67.4635
rfoot -47.863 -37.492
rtoes 9.59238
lfemur -37.5386 -21.437 -3.01267
ltibia 24.8111
lfoot 8.7391 -6.38297
ltoes -13.5935
889
root 1.27338 15.3109 -5.24939 -5.48935 -0.668019 1.60469
lowerback -8.56325 12.0952 7.72639
upperback -3.62525 15.6973 -6.29907
thorax 4.6672 7.9439 -8.43215
lowerneck 3.51736 -9.59517 -15.6938
upperneck 50.5786 -4.8344 -14.8208
head 19.97 -6.40962 -5.50203
rclavicle 5.76476e-014 1.11319e-014
rhumerus 69.3518 -5.23681 -73.3443
rradius 147.265
rwrist -64.7525
rhand 1.65528 -38.3508
rfingers 7.12502
rthumb 27.1749 -66.414
lclavicle 5.76476e-014 1.11319e-014
lhumerus -58.4358 -11.9086 82.438
lradius 35.8981
lwrist 25.178
lhand -10.7443 -20.2669
lfingers 7.12502
lthumb 15.2668 9.14965
rfemur -16.0901 -35.489 19.5253
rtibia 67.4523
rfoot -48.0026 -37.1544
rtoes 9.92696
lfemur -37.4832 -21.5067 -3.21997
ltibia 24.829
lfoot 8.78233 -6.22867
ltoes -13.3524
890
root 1.27849 15.315 -5.24442 -5.59548 -0.759231 1.41119
lowerback -8.6734 12.0865 7.89722
upperback -3.5353 15.6605 -6.19033
thorax 4.82778 7.93187 -8.38059
lowerneck 3.68206 -9.63026 -15.8535
upperneck 50.4076 -4.96157 -14.7865
head 19.8133 -6.48469 -5.43025
rclavicle 1.33583e-013 -2.8625e-014
rhumerus 69.369 -5.16098 -73.3457
rradius 147.28
rwrist -64.6413
rhand 1.58097 -38.4479
rfingers 7.12502
rthumb 27.1038 -66.5221
lclavicle 1.33583e-013 -2.8625e-014
lhumerus -58.4025 -11.7297 82.2822
lradius 35.8115
lwrist 24.9316
lhand -11.552 -19.8468
lfingers 7.12502
lthumb 14.4887 9.62737
rfemur -15.833 -35.3556 19.6457
rtibia 67.3175
rfoot -48.2725 -36.8579
rtoes 10.5341
lfemur -37.3527 -21.4977 -3.04415
ltibia 24.8661
lfoot 8.7958 -6.15365
ltoes -13.2001
891
root 1.28649 15.3181 -5.24089 -5.63553 -0.736951 1.05803
lowerback -8.66317 12.0733 8.321
upperback -3.53128 15.6063 -6.11341
thorax 4.9013 7.91152 -8.52908
lowerneck 3.76944 -9.62266 -15.9453
upperneck 50.318 -5.0221 -14.6878
head 19.7345 -6.51445 -5.34938
rclavicle -6.87795e-014 -5.08889e-014
rhumerus 69.3807 -5.18488 -73.4065
rradius 147.244
rwrist -64.6821
rhand 1.73721 -38.4983
rfingers 7.12502
rthumb 27.2532 -66.5492
lclavicle -6.87795e-014 -5.08889e-014
lhumerus -58.252 -11.4976 81.9267
lradius 35.468
lwrist 24.2859
lhand -24 -16.2949
lfingers 7.12502
lthumb 2.47741 13.6705
rfemur -15.6066 -35.4247 19.9039
rtibia 67.1443
rfoot -48.1681 -36.9261
rtoes 10.3785
lfemur -37.3139 -21.3613 -2.81537
ltibia 24.9219
lfoot 8.72498 -6.47767
ltoes -13.7304
892
root 1.28658 15.3232 -5.23706 -5.97974 -0.942784 0.512067
lowerback -8.26507 12.1178 8.93473
upperback -3.482 15.6383 -5.90377
thorax 4.84176 7.93344 -8.68799
lowerneck 3.67975 -9.63013 -16.0291
upperneck 50.3421 -5.03147 -14.6183
head 19.7894 -6.52729 -5.31749
rclavicle 2.70347e-014 1.74931e-014
rhumerus 69.3844 -5.23887 -73.4034
rradius 147.179
rwrist -64.7876
rhand 1.94523 -38.6042
rfingers 7.12502
rthumb 27.4522 -66.6237
lclavicle 2.70347e-014 1.74931e-014
lhumerus -57.9147 -11.2024 81.5487
lradius 34.7441
lwrist 23.4444
lhand -18.253 -18.1952
lfingers 7.12502
lthumb 8.02612 11.6324
rfemur -15.0632 -35.191 20.3577
rtibia 66.9312
rfoot -47.8888 -37.4802
rtoes 9.99821
lfemur -36.855 -21.0871 -2.44172
ltibia 24.9794
lfoot 8.57291 -6.77168
ltoes -14.0385
893
root 1.29089 15.3267 -5.24085 -5.79141 -0.839837 0.71356
lowerback -8.42278 12.0471 8.60426
upperback -3.52369 15.555 -5.91403
thorax 4.78193 7.8823 -8.52585
lowerneck 3.59566 -9.5939 -16.0488
upperneck 50.3033 -4.93337 -14.677
head 19.7905 -6.49584 -5.33206
rclavicle -7.7526e-014 -1.59028e-015
rhumerus 69.4007 -5.15816 -73.3515
rradius 147.149
rwrist -64.7913
rhand 1.96676 -38.6941
rfingers 7.12502
rthumb 27.4728 -66.7103
lclavicle -7.7526e-014 -1.59028e-015
lhumerus -57.7329 -10.9078 81.3524
lradius 34.2284
lwrist 22.7332
lhand -19.2334 -24.0753
lfingers 7.12502
lthumb 7.07987 5.78624
rfemur -15.3522 -35.2688 20.24
rtibia 66.9603
rfoot -47.5793 -37.859
rtoes 9.56906
lfemur -37.0871 -21.1259 -2.60905
ltibia 24.9631
lfoot 8.56937 -6.70959
ltoes -13.6907
894
root 1.30139 15.3261 -5.24518 -5.59206 -0.699339 1.08005
lowerback -8.57778 12.0883 8.24026
upperback -3.67437 15.6356 -6.12617
thorax 4.69055 7.91317 -8.52928
lowerneck 3.9884 -9.60334 -15.7006
upperneck 50.2681 -5.02712 -14.8064
head 19.6008 -6.48206 -5.41095
rclavicle 3.10899e-013 -9.54166e-015
rhumerus 69.2135 -5.3577 -73.279
rradius 147.06
rwrist -64.6208
rhand 1.8669 -38.6686
rfingers 7.12502
rthumb 27.3773 -66.7
lclavicle 3.10899e-013 -9.54166e-015
lhumerus -57.9577 -11.3014 81.3314
lradius 34.202
lwrist 22.1616
lhand -6.17425 -25.5268
lfingers 7.12502
lthumb 19.6648 3.49862
rfemur -15.697 -35.3556 19.9256
rtibia 67.0616
rfoot -47.5167 -37.8838
rtoes 9.3716
lfemur -37.3094 -21.1916 -2.96095
ltibia 24.8575
lfoot 8.60962 -6.64173
ltoes -13.5124
895
root 1.3146 15.3212 -5.24792 -5.44037 -0.574839 1.42456
lowerback -8.70834 12.1568 7.95551
upperback -3.82191 15.7517 -6.38023
thorax 4.62961 7.9659 -8.61188
lowerneck 4.34501 -9.6476 -15.2321
upperneck 50.3217 -5.14292 -14.986
head 19.4667 -6.46468 -5.55453
rclavicle -8.34896e-014 2.8625e-014
rhumerus 69.0242 -5.63231 -73.2673
rradius 146.948
rwrist -64.4706
rhand 1.77341 -38.4604
rfingers 7.12502
rthumb 27.2879 -66.5059
lclavicle -8.34896e-014 2.8625e-014
lhumerus -58.2135 -11.8534 81.3196
lradius 34.2592
lwrist 21.5842
lhand -4.61979 -24.7906
lfingers 7.12502
lthumb 21.1587 4.07477
rfemur -15.8257 -35.2596 19.5216
rtibia 67.2293
rfoot -49.0026 -35.8179
rtoes 11.7488
lfemur -37.4512 -21.2642 -3.3147
ltibia 24.6899
lfoot 8.75003 -6.6461
ltoes -13.4977
